<svg viewBox="0 0 1024 1024" version="1.1" xmlns="http://www.w3.org/2000/svg">
  <path fill="#666666" d="m874.66667,128l-725.33334,0a106.66667,106.66667 0 0 0 -106.66666,106.66667l0,384a106.66667,106.66667 0 0 0 106.66666,106.66666l341.33334,0l0,128l-234.66667,0c-11.94667,0 -21.33333,9.38667 -21.33333,21.33334s9.38666,21.33333 21.33333,21.33333l512,0c11.94667,0 21.33333,-9.38667 21.33333,-21.33333s-9.38666,-21.33334 -21.33333,-21.33334l-234.66667,0l0,-128l341.33334,0a106.66667,106.66667 0 0 0 106.66666,-106.66666l0,-384a106.66667,106.66667 0 0 0 -106.66666,-106.66667zm64,490.66667c0,35.41333 -28.58667,64 -64,64l-725.33334,0c-35.41333,0 -64,-28.58667 -64,-64l0,-384c0,-35.41334 28.58667,-64 64,-64l725.33334,0c35.41333,0 64,28.58666 64,64l0,384z"/>
  <path fill="#666666" d="m227.41333,317.01333l205.22667,0c11.94667,0 21.33333,-9.38666 21.33333,-21.33333s-9.38666,-21.33333 -21.33333,-21.33333l-205.22667,0c-11.94666,0 -21.33333,9.38666 -21.33333,21.33333s9.81333,21.33333 21.33333,21.33333zm0,130.98667l389.12,0c11.94667,0 21.33334,-9.38667 21.33334,-21.33333s-9.38667,-21.33334 -21.33334,-21.33334l-389.12,0c-11.94666,0 -21.33333,9.38667 -21.33333,21.33334s9.81333,21.33333 21.33333,21.33333zm587.94667,88.32l-587.94667,0c-11.94666,0 -21.33333,9.38667 -21.33333,21.33333s9.38667,21.33334 21.33333,21.33334l587.94667,0c11.94667,0 21.33333,-9.38667 21.33333,-21.33334s-9.38666,-21.33333 -21.33333,-21.33333z"/>
</svg>
